<?xml version="1.0" encoding="UTF-8"?>
<svg id="Layer_1" xmlns="http://www.w3.org/2000/svg" version="1.1" viewBox="0 0 24 24">
  <!-- Generator: Adobe Illustrator 29.3.1, SVG Export Plug-In . SVG Version: 2.1.0 Build 151)  -->
  <defs>
    <style>
      .st0 {
        fill: none;
        stroke: #fac02c;
        stroke-linecap: round;
        stroke-linejoin: round;
        stroke-width: 1.5px;
      }
    </style>
  </defs>
  <path class="st0" d="M12,21c5,0,9-4,9-9S17,3,12,3,3,7,3,12s4,9,9,9Z"/>
  <path class="st0" d="M13.5,17.2c0-.4.2-.8.4-1.1s.7-.4,1.1-.4.8.2,1.1.4c.3.3.4.7.4,1.1"/>
  <path class="st0" d="M7.5,17.2c0-.4.2-.8.4-1.1.3-.3.7-.4,1.1-.4s.8.2,1.1.4c.3.3.4.7.4,1.1"/>
  <path class="st0" d="M13.5,20.9v-3.6c0-.4-.2-.8-.4-1.1s-.7-.4-1.1-.4-.8.2-1.1.4-.4.7-.4,1.1v3.6"/>
  <path class="st0" d="M16.5,19.8v-3.3l-4.5-9.8-4.5,9.8v3.3"/>
  <path class="st0" d="M9.9,11.2h4.2"/>
</svg>